<?xml version="1.0"?>
<svg width="498.181" height="498.181" xmlns="http://www.w3.org/2000/svg" xmlns:svg="http://www.w3.org/2000/svg">
 <g class="layer">
  <title>Layer 1</title>
  <g id="svg_1" transform="rotate(23.0727 265.09 240.09)">
   <g id="svg_5">
    <path d="m265.091,489.181c-67.97,0 -125.264,-14.227 -165.687,-41.143c-22.343,-14.876 -39.643,-33.626 -51.418,-55.728c-12.496,-23.454 -18.832,-50.837 -18.832,-81.39c0,-43.478 12.799,-85.733 37.012,-122.199c23.537,-35.447 56.712,-63.885 95.938,-82.238c40.14,-18.765 66.074,-61.072 66.074,-107.783l0,-0.2c0,-4.142 3.357,-7.5 7.5,-7.5l58.824,0c4.143,0 7.5,3.358 7.5,7.5l0,0.2c0,46.711 25.935,89.018 66.072,107.781c7.984,3.736 15.834,7.955 23.333,12.541c3.533,2.161 4.646,6.777 2.485,10.311c-2.161,3.534 -6.776,4.647 -10.312,2.486c-7.026,-4.297 -14.382,-8.25 -21.862,-11.75c-43.274,-20.23 -71.95,-64.481 -74.527,-114.069l-44.203,0c-2.577,49.587 -31.253,93.838 -74.529,114.07c-36.731,17.186 -67.783,43.795 -89.798,76.949c-22.575,33.999 -34.508,73.385 -34.508,113.902c0,54.616 21.386,96.548 63.563,124.632c37.952,25.271 92.371,38.628 157.373,38.628s119.421,-13.357 157.373,-38.628c42.178,-28.084 63.563,-70.016 63.563,-124.632c0,-61.378 -27.674,-119.722 -75.926,-160.069c-3.177,-2.657 -3.6,-7.387 -0.942,-10.564c2.657,-3.178 7.387,-3.6 10.565,-0.942c51.669,43.206 81.303,105.743 81.303,171.576c0,30.552 -6.336,57.936 -18.832,81.39c-11.775,22.102 -29.075,40.852 -51.418,55.728c-40.421,26.914 -97.715,41.141 -165.684,41.141z" fill="#000" id="svg_6"/>
    <path d="m135.737,387.196c-3.315,0 -6.348,-2.215 -7.242,-5.57c-4.957,-18.599 -7.471,-39.644 -7.471,-62.551c0,-70.278 23.633,-135.688 63.217,-174.97c2.939,-2.917 7.688,-2.901 10.606,0.041c2.918,2.94 2.899,7.688 -0.04,10.606c-36.809,36.527 -58.783,97.956 -58.783,164.322c0,21.603 2.344,41.348 6.965,58.688c1.066,4.002 -1.313,8.112 -5.315,9.179c-0.647,0.173 -1.297,0.255 -1.937,0.255z" fill="#000" id="svg_7"/>
    <path d="m154.47,430.251c-2.446,0 -4.844,-1.195 -6.283,-3.395c-3.737,-5.713 -7.14,-11.889 -10.111,-18.356c-1.729,-3.764 -0.08,-8.217 3.685,-9.946c3.764,-1.731 8.216,-0.08 9.946,3.684c2.661,5.793 5.7,11.313 9.033,16.406c2.268,3.466 1.296,8.115 -2.17,10.382c-1.267,0.828 -2.691,1.225 -4.1,1.225z" fill="#000" id="svg_8"/>
    <path d="m375.717,430.251c-1.408,0 -2.832,-0.396 -4.099,-1.224c-3.466,-2.267 -4.438,-6.916 -2.171,-10.382c16.395,-25.067 24.707,-58.567 24.707,-99.57c0,-66.366 -21.975,-127.794 -58.783,-164.322c-2.939,-2.918 -2.958,-7.667 -0.04,-10.607c2.917,-2.94 7.666,-2.958 10.606,-0.041c39.584,39.284 63.217,104.693 63.217,174.97c0,43.968 -9.136,80.231 -27.154,107.78c-1.439,2.2 -3.837,3.396 -6.283,3.396z" fill="#000" id="svg_9"/>
   </g>
  </g>
 </g>
</svg>