<?xml version="1.0" encoding="UTF-8"?>
<svg viewBox="0 0 20 20" xmlns="http://www.w3.org/2000/svg">
 <path d="m4 4h12.8v12.8h-12.8v-12.8zm5.9687 7.2373-2.197-4.1157h1.0041l1.2924 2.6046c0.0199 0.04639 0.0431 0.09444 0.0696 0.14415 0.0265 0.0497 0.0497 0.10107 0.0696 0.15404 0.0132 0.0199 0.0232 0.0382 0.0298 0.0547 0.0066 0.0166 0.0133 0.0315 0.0199 0.0448 0.0331 0.0662 0.0629 0.1309 0.0895 0.1938 0.0265 0.063 0.0497 0.121 0.0695 0.174 0.0531-0.1127 0.1111-0.2336 0.174-0.3629 0.063-0.12921 0.1276-0.26341 0.1939-0.40259l1.3122-2.6046h0.9345l-2.2169 4.1654v2.6543h-0.84502v-2.704z" clip-rule="evenodd" fill="#FB651E" fill-rule="evenodd"/>
</svg>
