<?xml version="1.0" encoding="UTF-8"?>
<!DOCTYPE svg  PUBLIC '-//W3C//DTD SVG 1.1//EN'  'http://www.w3.org/Graphics/SVG/1.1/DTD/svg11.dtd'>
<svg width="512" height="512" version="1.1" viewBox="0 0 512 512" xmlns="http://www.w3.org/2000/svg" xmlns:xlink="http://www.w3.org/1999/xlink">
    <defs>
        <path id="a1gK6QbXay" d="m408.75 30.69c0.01-0.02 0.04-0.08 0.09-0.19l-28.99-11.51-28.98-11.5c-0.05 0.11-0.08 0.17-0.08 0.18-20.99 45.93-67.25 76.07-117.47 77.7-89.99 2.93-173.25 51.39-209.73 131.21-50.92 111.43 29.11 196.85 153.44 246.22 124.33 49.36 245.86 43.96 296.79-67.47 36.48-79.82 16.29-169.35-43.79-231.86-33.54-34.88-42.27-86.86-21.28-132.78z"/>
        <path id="a3t85oTDub" d="m23.6 216.57c36.47-79.82 119.72-128.28 209.72-131.2 50.21-1.63 96.47-31.78 117.46-77.71 0.01-0.01 0.04-0.07 0.09-0.18l16.61 6.6c-0.05 0.11-0.08 0.17-0.08 0.18-20.99 45.93-51.49 82.34-77.69 93.49-46.97 20.01-100.57 80.25-137.05 160.06-50.93 111.44-28.69 173.92 24.36 194.98-124.32-49.36-204.35-134.79-153.42-246.22z"/>
        <path id="c5HqhRMD" d="m27.87 367.07c-15.77-22.41-24.95-46.4-27.27-71.3-2.47-26.44 2.78-54.07 15.6-82.13 18.26-39.93 48.61-73.74 87.77-97.76 38.08-23.35 82.71-36.49 129.07-38 47.43-1.53 90.75-30.24 110.35-73.14 0.01-0.02 0.08-0.17 0.09-0.19 1.74-3.8 6.45-5.57 10.54-3.95 5.79 2.3 52.17 20.71 57.97 23.01 4.08 1.62 5.98 6.02 4.24 9.83-0.01 0.01-0.08 0.16-0.09 0.18-19.6 42.9-11.81 91.91 19.87 124.85 6.3 6.55 12.26 13.5 17.73 20.65 2.57 3.36 1.73 8.04-1.88 10.44s-8.63 1.62-11.21-1.75c-5.12-6.7-10.71-13.21-16.61-19.35-34.15-35.51-43.83-87.38-25.56-133.93-4.35-1.73-39.2-15.57-43.56-17.29-23.35 44.53-70.18 73.96-121.32 75.61-43.41 1.41-85.18 13.7-120.8 35.54-36.51 22.4-64.81 53.91-81.82 91.12-22.92 50.17-19.45 97.05 10.33 139.34 26.79 38.07 74.81 71.63 138.86 97.06 64.06 25.43 123.29 34.45 171.3 26.09 53.35-9.29 92.03-39.44 114.96-89.6 25.76-56.38 22.98-120.8-7.63-176.73-2.02-3.69-0.45-8.2 3.5-10.08 3.96-1.88 8.79-0.41 10.81 3.27 32.78 59.9 35.73 128.94 8.1 189.41-12.83 28.06-30.57 50.73-52.73 67.38-20.88 15.7-45.8 26.15-74.06 31.07-51.13 8.91-113.56-0.44-180.54-27.03-66.98-26.6-117.47-62.08-146.01-102.62z"/>
        <path id="a39luIDZ3m" d="m84.42 317.45c2.92-19.02 9.28-39.33 18.89-60.37 29.51-64.55 80.25-115.39 135.75-135.98 4.12-1.53 8.79 0.34 10.43 4.19 1.64 3.84-0.37 8.19-4.49 9.72-51.6 19.15-99.04 66.98-126.9 127.93-9.07 19.85-15.05 38.9-17.78 56.63-0.63 4.1-4.69 6.94-9.09 6.36-0.71-0.1-1.38-0.28-2.01-0.53-3.27-1.29-5.33-4.52-4.8-7.95z"/>
        <path id="fCmUN4Bjs" d="m84.84 366.7c-1.29-6.71-2.05-13.71-2.26-20.81-0.12-4.14 3.37-7.58 7.81-7.7 4.43-0.12 8.13 3.14 8.25 7.28 0.19 6.36 0.87 12.62 2.02 18.6 0.78 4.07-2.13 7.96-6.5 8.69-1.6 0.26-3.17 0.07-4.56-0.48-2.41-0.96-4.27-3-4.76-5.58z"/>
        <path id="c2Gdjbd9Gf" d="m304.11 456.11c-2.47-3.43-1.47-8.08 2.22-10.38 26.67-16.61 48.93-44.13 66.14-81.79 27.86-60.96 31.99-125.98 11.05-173.93-1.67-3.83 0.3-8.2 4.41-9.76s8.8 0.29 10.47 4.11c22.52 51.57 18.35 120.9-11.15 185.45-18.46 40.38-42.68 70.12-72 88.37-2.34 1.46-5.21 1.62-7.62 0.66-1.39-0.55-2.62-1.47-3.52-2.73z"/>
    </defs>
    <use fill="#653181" xlink:href="#a1gK6QbXay"/>&gt;
    <use fill="#591b7b" xlink:href="#a3t85oTDub"/>
    <use fill="#000000" xlink:href="#c5HqhRMD"/>
    <use fill="#000000" xlink:href="#a39luIDZ3m"/>
    <use fill="#000000" xlink:href="#fCmUN4Bjs"/>
    <use fill="#000000" xlink:href="#c2Gdjbd9Gf"/>
</svg>
