<?xml version="1.0" standalone="no"?>
<!DOCTYPE svg PUBLIC "-//W3C//DTD SVG 20010904//EN"
 "http://www.w3.org/TR/2001/REC-SVG-20010904/DTD/svg10.dtd">
<svg version="1.0" xmlns="http://www.w3.org/2000/svg"
 width="700.000000pt" height="700.000000pt" viewBox="0 0 700.000000 700.000000"
 preserveAspectRatio="xMidYMid meet">
<metadata>
Created by potrace 1.11, written by Peter Selinger 2001-2013
</metadata>
<g transform="translate(0.000000,700.000000) scale(0.100000,-0.100000)"
fill="#000000" stroke="none">
<path d="M4854 6981 c-23 -14 -49 -51 -88 -128 -227 -434 -632 -756 -1111
-883 -146 -39 -209 -48 -405 -60 -354 -21 -557 -52 -838 -126 -1099 -290
-1962 -1063 -2293 -2054 -238 -715 -114 -1392 367 -1995 425 -532 1145 -1006
2054 -1350 513 -195 989 -312 1480 -367 176 -19 635 -16 795 6 852 115 1475
538 1849 1257 440 844 447 1805 20 2676 -76 154 -96 175 -167 172 l-50 -3 -69
107 -70 106 21 27 c13 16 21 41 21 64 0 44 -46 108 -186 263 -204 226 -266
309 -344 464 -103 207 -149 390 -157 633 -8 249 23 437 112 665 48 122 49 149
7 188 -31 28 -823 347 -881 354 -25 3 -46 -2 -67 -16z"/>
</g>
</svg>
