<?xml version="1.0" encoding="UTF-8" standalone="no"?>
<!DOCTYPE svg PUBLIC "-//W3C//DTD SVG 1.1//EN" "http://www.w3.org/Graphics/SVG/1.1/DTD/svg11.dtd">
<svg version="1.1" xmlns="http://www.w3.org/2000/svg" xmlns:xlink="http://www.w3.org/1999/xlink" preserveAspectRatio="xMidYMid meet" viewBox="0 0 32 32" width="16" height="16"><defs><path d="M26.67 1.96C26.67 1.96 26.67 1.95 26.67 1.95L24.82 1.21L22.96 0.47C22.96 0.48 22.96 0.48 22.96 0.49C21.61 3.43 18.65 5.35 15.44 5.46C9.68 5.65 4.35 8.75 2.02 13.86C-1.24 20.99 3.88 26.45 11.84 29.61C19.79 32.77 27.57 32.43 30.83 25.3C33.17 20.19 31.87 14.46 28.03 10.46C25.88 8.22 25.32 4.9 26.67 1.96Z" id="awvoOcilM"></path><path d="M19.97 29.19C19.81 28.97 19.87 28.67 20.11 28.52C21.82 27.46 23.24 25.7 24.34 23.29C26.13 19.39 26.39 15.22 25.05 12.16C24.94 11.91 25.07 11.63 25.33 11.53C25.6 11.43 25.9 11.55 26 11.79C27.44 15.1 27.18 19.53 25.29 23.66C24.11 26.25 22.56 28.15 20.68 29.32C20.53 29.41 20.35 29.42 20.19 29.36C20.1 29.33 20.03 29.27 19.97 29.19Z" id="aeudSlycN"></path><path d="M2.02 13.86C4.35 8.75 9.68 5.65 15.44 5.46C18.65 5.35 21.61 3.42 22.96 0.49C22.96 0.48 22.96 0.48 22.96 0.47L24.02 0.9C24.02 0.9 24.02 0.91 24.02 0.91C22.68 3.85 20.72 6.18 19.05 6.89C16.04 8.17 12.61 12.03 10.28 17.14C7.02 24.27 8.44 28.27 11.83 29.61C3.88 26.45 -1.24 20.99 2.02 13.86Z" id="g3UMwYFv4Y"></path><path d="M5.93 23.46C5.85 23.03 5.8 22.59 5.79 22.13C5.78 21.87 6.01 21.65 6.29 21.64C6.57 21.63 6.81 21.84 6.82 22.11C6.83 22.51 6.87 22.91 6.95 23.3C7 23.56 6.81 23.81 6.53 23.85C6.43 23.87 6.33 23.86 6.24 23.82C6.09 23.76 5.97 23.63 5.93 23.46Z" id="a9fB53c3L"></path><path d="M5.91 19.9C6.09 18.68 6.5 17.38 7.12 16.04C9.01 11.91 12.25 8.65 15.8 7.33C16.07 7.24 16.37 7.36 16.47 7.6C16.58 7.85 16.45 8.13 16.19 8.22C12.88 9.45 9.85 12.51 8.06 16.41C7.48 17.68 7.1 18.9 6.93 20.04C6.89 20.3 6.63 20.48 6.34 20.44C6.3 20.44 6.26 20.43 6.21 20.41C6.01 20.33 5.87 20.12 5.91 19.9Z" id="aramuctT"></path><path d="M1.78 23.49C0.77 22.05 0.18 20.52 0.04 18.92C-0.12 17.23 0.21 15.46 1.03 13.67C2.2 11.11 4.14 8.95 6.65 7.41C9.09 5.92 11.94 5.08 14.91 4.98C17.95 4.88 20.72 3.04 21.97 0.3C21.97 0.3 21.98 0.29 21.98 0.29C22.09 0.04 22.39 -0.07 22.65 0.03C23.03 0.18 25.99 1.36 26.36 1.51C26.63 1.61 26.75 1.89 26.64 2.14C26.64 2.14 26.63 2.15 26.63 2.15C25.38 4.89 25.87 8.03 27.9 10.14C28.3 10.56 28.69 11 29.04 11.46C29.2 11.67 29.15 11.97 28.92 12.13C28.68 12.28 28.36 12.23 28.2 12.02C27.87 11.59 27.51 11.17 27.14 10.78C24.95 8.5 24.33 5.19 25.5 2.21C25.22 2.1 22.99 1.21 22.71 1.1C21.22 3.95 18.22 5.83 14.95 5.94C12.17 6.03 9.5 6.82 7.22 8.21C4.88 9.65 3.07 11.66 1.98 14.04C0.51 17.26 0.73 20.26 2.64 22.96C4.36 25.4 7.43 27.55 11.53 29.17C15.63 30.8 19.42 31.38 22.49 30.84C25.91 30.25 28.38 28.32 29.85 25.11C31.5 21.5 31.32 17.38 29.36 13.8C29.23 13.56 29.33 13.27 29.58 13.15C29.84 13.03 30.15 13.13 30.28 13.36C32.37 17.2 32.56 21.61 30.79 25.48C29.97 27.28 28.84 28.73 27.42 29.8C26.08 30.8 24.49 31.47 22.68 31.79C19.41 32.36 15.41 31.76 11.13 30.06C6.84 28.35 3.61 26.08 1.78 23.49Z" id="aJFvCrKtO"></path></defs><g><g><g><use xlink:href="#awvoOcilM" opacity="1" fill="#653181" fill-opacity="1"></use><g><use xlink:href="#awvoOcilM" opacity="1" fill-opacity="0" stroke="#000000" stroke-width="1" stroke-opacity="0"></use></g></g><g><use xlink:href="#aeudSlycN" opacity="1" fill="#000000" fill-opacity="1"></use><g><use xlink:href="#aeudSlycN" opacity="1" fill-opacity="0" stroke="#000000" stroke-width="1" stroke-opacity="0"></use></g></g><g><use xlink:href="#g3UMwYFv4Y" opacity="1" fill="#591b7b" fill-opacity="1"></use><g><use xlink:href="#g3UMwYFv4Y" opacity="1" fill-opacity="0" stroke="#000000" stroke-width="1" stroke-opacity="0"></use></g></g><g><use xlink:href="#a9fB53c3L" opacity="1" fill="#000000" fill-opacity="1"></use><g><use xlink:href="#a9fB53c3L" opacity="1" fill-opacity="0" stroke="#000000" stroke-width="1" stroke-opacity="0"></use></g></g><g><use xlink:href="#aramuctT" opacity="1" fill="#000000" fill-opacity="1"></use><g><use xlink:href="#aramuctT" opacity="1" fill-opacity="0" stroke="#000000" stroke-width="1" stroke-opacity="0"></use></g></g><g><use xlink:href="#aJFvCrKtO" opacity="1" fill="#000000" fill-opacity="1"></use><g><use xlink:href="#aJFvCrKtO" opacity="1" fill-opacity="0" stroke="#000000" stroke-width="0" stroke-opacity="1"></use></g></g></g></g></svg>
