<?xml version="1.0" encoding="UTF-8" standalone="no"?>
<!DOCTYPE svg PUBLIC "-//W3C//DTD SVG 1.1//EN" "http://www.w3.org/Graphics/SVG/1.1/DTD/svg11.dtd">
<svg version="1.1" xmlns="http://www.w3.org/2000/svg" xmlns:xlink="http://www.w3.org/1999/xlink" preserveAspectRatio="xMidYMid meet" viewBox="0 0 500 500" width="500" height="500"><defs><path d="M408.75 30.69C408.76 30.67 408.79 30.61 408.84 30.5L379.85 18.99L350.87 7.49C350.82 7.6 350.79 7.66 350.79 7.67C329.8 53.6 283.54 83.74 233.32 85.37C143.33 88.3 60.07 136.76 23.59 216.58C-27.33 328.01 52.7 413.43 177.03 462.8C301.36 512.16 422.89 506.76 473.82 395.33C510.3 315.51 490.11 225.98 430.03 163.47C396.49 128.59 387.76 76.61 408.75 30.69Z" id="a1gK6QbXay"></path><path d="M23.6 216.57C60.07 136.75 143.32 88.29 233.32 85.37C283.53 83.74 329.79 53.59 350.78 7.66C350.79 7.65 350.82 7.59 350.87 7.48L367.48 14.08C367.43 14.19 367.4 14.25 367.4 14.26C346.41 60.19 315.91 96.6 289.71 107.75C242.74 127.76 189.14 188 152.66 267.81C101.73 379.25 123.97 441.73 177.02 462.79C52.7 413.43 -27.33 328 23.6 216.57Z" id="a3t85oTDub"></path><path d="M27.87 367.07C12.1 344.66 2.92 320.67 0.6 295.77C-1.87 269.33 3.38 241.7 16.2 213.64C34.46 173.71 64.81 139.9 103.97 115.88C142.05 92.53 186.68 79.39 233.04 77.88C280.47 76.35 323.79 47.64 343.39 4.74C343.4 4.72 343.47 4.57 343.48 4.55C345.22 0.75 349.93 -1.02 354.02 0.6C359.81 2.9 406.19 21.31 411.99 23.61C416.07 25.23 417.97 29.63 416.23 33.44C416.22 33.45 416.15 33.6 416.14 33.62C396.54 76.52 404.33 125.53 436.01 158.47C442.31 165.02 448.27 171.97 453.74 179.12C456.31 182.48 455.47 187.16 451.86 189.56C448.25 191.96 443.23 191.18 440.65 187.81C435.53 181.11 429.94 174.6 424.04 168.46C389.89 132.95 380.21 81.08 398.48 34.53C394.13 32.8 359.28 18.96 354.92 17.24C331.57 61.77 284.74 91.2 233.6 92.85C190.19 94.26 148.42 106.55 112.8 128.39C76.29 150.79 47.99 182.3 30.98 219.51C8.06 269.68 11.53 316.56 41.31 358.85C68.1 396.92 116.12 430.48 180.17 455.91C244.23 481.34 303.46 490.36 351.47 482C404.82 472.71 443.5 442.56 466.43 392.4C492.19 336.02 489.41 271.6 458.8 215.67C456.78 211.98 458.35 207.47 462.3 205.59C466.26 203.71 471.09 205.18 473.11 208.86C505.89 268.76 508.84 337.8 481.21 398.27C468.38 426.33 450.64 449 428.48 465.65C407.6 481.35 382.68 491.8 354.42 496.72C303.29 505.63 240.86 496.28 173.88 469.69C106.9 443.09 56.41 407.61 27.87 367.07Z" id="c5HqhRMD"></path><path d="M84.42 317.45C87.34 298.43 93.7 278.12 103.31 257.08C132.82 192.53 183.56 141.69 239.06 121.1C243.18 119.57 247.85 121.44 249.49 125.29C251.13 129.13 249.12 133.48 245 135.01C193.4 154.16 145.96 201.99 118.1 262.94C109.03 282.79 103.05 301.84 100.32 319.57C99.69 323.67 95.63 326.51 91.23 325.93C90.52 325.83 89.85 325.65 89.22 325.4C85.95 324.11 83.89 320.88 84.42 317.45Z" id="a39luIDZ3m"></path><path d="M84.84 366.7C83.55 359.99 82.79 352.99 82.58 345.89C82.46 341.75 85.95 338.31 90.39 338.19C94.82 338.07 98.52 341.33 98.64 345.47C98.83 351.83 99.51 358.09 100.66 364.07C101.44 368.14 98.53 372.03 94.16 372.76C92.56 373.02 90.99 372.83 89.6 372.28C87.19 371.32 85.33 369.28 84.84 366.7Z" id="fCmUN4Bjs"></path><path d="M304.11 456.11C301.64 452.68 302.64 448.03 306.33 445.73C333 429.12 355.26 401.6 372.47 363.94C400.33 302.98 404.46 237.96 383.52 190.01C381.85 186.18 383.82 181.81 387.93 180.25C392.04 178.69 396.73 180.54 398.4 184.36C420.92 235.93 416.75 305.26 387.25 369.81C368.79 410.19 344.57 439.93 315.25 458.18C312.91 459.64 310.04 459.8 307.63 458.84C306.24 458.29 305.01 457.37 304.11 456.11Z" id="c2Gdjbd9Gf"></path></defs><g><g><g><use xlink:href="#a1gK6QbXay" opacity="1" fill="#653181" fill-opacity="1"></use><g><use xlink:href="#a1gK6QbXay" opacity="1" fill-opacity="0" stroke="#000000" stroke-width="1" stroke-opacity="0"></use></g></g><g><use xlink:href="#a3t85oTDub" opacity="1" fill="#591b7b" fill-opacity="1"></use><g><use xlink:href="#a3t85oTDub" opacity="1" fill-opacity="0" stroke="#000000" stroke-width="1" stroke-opacity="0"></use></g></g><g><use xlink:href="#c5HqhRMD" opacity="1" fill="#000000" fill-opacity="1"></use><g><use xlink:href="#c5HqhRMD" opacity="1" fill-opacity="0" stroke="#000000" stroke-width="1" stroke-opacity="0"></use></g></g><g><use xlink:href="#a39luIDZ3m" opacity="1" fill="#000000" fill-opacity="1"></use><g><use xlink:href="#a39luIDZ3m" opacity="1" fill-opacity="0" stroke="#000000" stroke-width="1" stroke-opacity="0"></use></g></g><g><use xlink:href="#fCmUN4Bjs" opacity="1" fill="#000000" fill-opacity="1"></use><g><use xlink:href="#fCmUN4Bjs" opacity="1" fill-opacity="0" stroke="#000000" stroke-width="1" stroke-opacity="0"></use></g></g><g><use xlink:href="#c2Gdjbd9Gf" opacity="1" fill="#000000" fill-opacity="1"></use><g><use xlink:href="#c2Gdjbd9Gf" opacity="1" fill-opacity="0" stroke="#000000" stroke-width="1" stroke-opacity="0"></use></g></g></g></g></svg>
